<svg xmlns="http://www.w3.org/2000/svg" viewBox="0 0 1024 1024">
  <defs>
    <linearGradient id="bg" x1="0" y1="0" x2="1" y2="1">
      <stop offset="0" stop-color="#2fd6a6"/>
      <stop offset="0.5" stop-color="#10a8c4"/>
      <stop offset="1" stop-color="#2f6bff"/>
    </linearGradient>
    <linearGradient id="hl" x1="0" y1="0" x2="0" y2="1">
      <stop offset="0" stop-color="#fff" stop-opacity="0.34"/>
      <stop offset="0.85" stop-color="#fff" stop-opacity="0"/>
    </linearGradient>
  </defs>
  <rect x="32" y="32" width="960" height="960" rx="224" fill="url(#bg)"/>
  <path d="M32 256A224 224 0 0 1 256 32H768A224 224 0 0 1 992 256V380C760 476 300 476 32 384Z" fill="url(#hl)"/>
  <g fill="#fff">
    <rect x="232" y="232" width="300" height="560" rx="44"/>
    <rect x="556" y="232" width="236" height="290" rx="44" fill-opacity="0.86"/>
    <rect x="556" y="546" width="236" height="110" rx="34" fill-opacity="0.68"/>
    <rect x="556" y="680" width="106" height="112" rx="30" fill-opacity="0.52"/>
    <rect x="686" y="680" width="106" height="112" rx="30" fill-opacity="0.38"/>
  </g>
</svg>
